<svg width="30" height="30" viewBox="0 0 30 30" fill="none" xmlns="http://www.w3.org/2000/svg">
<path d="M23.3759 11.5161C23.248 11.6153 20.9903 12.8875 20.9903 15.7162C20.9903 18.9881 23.8632 20.1456 23.9492 20.1743C23.9359 20.2449 23.4928 21.7595 22.4345 23.3029C21.4908 24.661 20.5053 26.017 19.006 26.017C17.5068 26.017 17.1209 25.1461 15.3902 25.1461C13.7035 25.1461 13.1038 26.0456 11.7324 26.0456C10.3611 26.0456 9.40419 24.7889 8.304 23.2456C7.02963 21.4332 6 18.6177 6 15.9455C6 11.6594 8.78685 9.38629 11.5296 9.38629C12.987 9.38629 14.2018 10.3432 15.1168 10.3432C15.9877 10.3432 17.3458 9.32897 19.0038 9.32897C19.6322 9.32897 21.8899 9.38629 23.3759 11.5161ZM18.2167 7.51443C18.9024 6.70086 19.3875 5.57201 19.3875 4.44316C19.3875 4.28662 19.3742 4.12788 19.3456 4C18.2299 4.04189 16.9027 4.74301 16.1023 5.67123C15.474 6.38558 14.8875 7.51443 14.8875 8.65871C14.8875 8.83068 14.9161 9.00266 14.9294 9.05778C14.9999 9.07101 15.1146 9.08644 15.2292 9.08644C16.2302 9.08644 17.4891 8.41618 18.2167 7.51443Z" fill="black"/>
</svg>
