<svg width="18" height="18" viewBox="0 0 18 18" fill="none" xmlns="http://www.w3.org/2000/svg">
<g clip-path="url(#clip0_6070_46358)">
<path d="M18.248 3.08985C18.248 3.05167 18.2434 3.00814 18.2381 2.96996C18.2235 2.85007 18.209 2.72941 18.18 2.60952C18.1564 2.48429 18.122 2.35981 18.0838 2.23916C18.0403 2.10476 17.9976 1.97494 17.9395 1.84512C17.896 1.74432 17.8433 1.63818 17.7907 1.54272C17.738 1.43734 17.6754 1.3312 17.6082 1.23498C17.5891 1.21131 17.57 1.18687 17.5502 1.1632C17.5021 1.07691 17.4448 1.00436 17.3776 0.922652C17.3776 0.91807 17.3677 0.91807 17.3631 0.912724C17.2914 0.811925 17.2097 0.720289 17.1181 0.643926C17.0318 0.55229 16.9402 0.470581 16.844 0.389635C16.7524 0.312508 16.6516 0.240726 16.5508 0.173527L16.5409 0.163599C16.4401 0.0918172 16.3294 0.024617 16.2187 -0.0288374C16.1325 -0.0815282 16.0553 -0.120473 15.9645 -0.158655C15.8156 -0.225855 15.6667 -0.283891 15.5179 -0.322073C15.398 -0.3656 15.2774 -0.399199 15.1476 -0.422872C15.0705 -0.441963 14.9888 -0.45189 14.9025 -0.456472C14.7247 -0.490072 14.5521 -0.5 14.3643 -0.5H3.16066C2.97362 -0.5 2.80031 -0.490072 2.62243 -0.456472C2.53616 -0.45189 2.45447 -0.441963 2.37736 -0.422872C2.24757 -0.399199 2.12771 -0.364836 2.00785 -0.322073C1.99793 -0.322073 1.99335 -0.322073 1.98418 -0.317491C1.87348 -0.288473 1.76355 -0.245709 1.66201 -0.202182C1.6475 -0.1976 1.62842 -0.187673 1.61849 -0.183091C1.50779 -0.139564 1.40243 -0.0914551 1.30624 -0.0296007C1.19554 0.0230902 1.08484 0.0902904 0.984063 0.162836L0.974138 0.172763C0.873363 0.239963 0.772587 0.311744 0.680973 0.388871C0.584779 0.47058 0.493928 0.552289 0.406895 0.643161C0.315281 0.720289 0.233592 0.811161 0.161828 0.911961L0.151903 0.921889C0.0847189 1.0036 0.0221146 1.07538 -0.0259827 1.16243C-0.0496497 1.18611 -0.0694978 1.21054 -0.0840034 1.23422C-0.151187 1.33043 -0.213791 1.43581 -0.266469 1.54196C-0.319147 1.63818 -0.371824 1.74356 -0.415341 1.84436C-0.473363 1.97418 -0.516117 2.104 -0.559634 2.23839C-0.597807 2.35829 -0.631399 2.48352 -0.65583 2.60876C-0.684841 2.72865 -0.699345 2.8493 -0.71385 2.96919C-0.718431 3.00738 -0.723776 3.0509 -0.723776 3.08908C-0.7337 3.18988 -0.738281 3.29068 -0.738281 3.39148V14.6024C-0.738281 14.6986 -0.738281 14.7994 -0.723776 14.8956C-0.723776 14.9392 -0.719194 14.9819 -0.71385 15.0255C-0.699345 15.1454 -0.684841 15.2607 -0.65583 15.3859C-0.632163 15.5058 -0.59857 15.6356 -0.559634 15.7608C-0.439772 16.1648 -0.242801 16.539 0.00226688 16.8757C0.0457836 16.9429 0.0938795 17.0101 0.151138 17.0728C0.151138 17.0773 0.15572 17.0773 0.161064 17.0873C0.232828 17.1835 0.319861 17.2744 0.406131 17.3561C0.492401 17.4477 0.584014 17.5241 0.680209 17.6058C0.771823 17.6829 0.872601 17.7593 0.973376 17.8265L0.983299 17.8311C1.08407 17.9028 1.19478 17.97 1.30548 18.0281C1.40167 18.0861 1.50703 18.1388 1.61773 18.177C1.62765 18.1869 1.64674 18.1915 1.66124 18.1961C1.76202 18.2396 1.87272 18.2824 1.98342 18.3114C1.99335 18.3213 1.99793 18.3213 2.00709 18.3213C2.12695 18.3648 2.24757 18.3931 2.3766 18.4175C2.45371 18.4366 2.5354 18.4465 2.62167 18.4557C2.79955 18.4847 2.97209 18.4992 3.1599 18.4992H7.76732V5.35708L3.77524 9.35013V6.52468L7.35429 2.95468L8.76668 1.54196L9.76146 2.53698V18.5H14.3635C14.5506 18.5 14.7239 18.4855 14.9018 18.4565C14.988 18.4465 15.0697 18.4374 15.1468 18.4183C15.2766 18.3946 15.3965 18.3656 15.5171 18.3221C15.666 18.2785 15.8149 18.2213 15.9637 18.1541C16.0553 18.1205 16.1317 18.0769 16.218 18.0288C16.3287 17.9708 16.4394 17.9036 16.5401 17.8318C16.5401 17.8318 16.5501 17.8318 16.5501 17.8272C16.6508 17.76 16.7516 17.6829 16.8432 17.6065C16.9394 17.5248 17.0303 17.4477 17.1173 17.3568C17.2036 17.2751 17.2906 17.1835 17.3624 17.088C17.367 17.0781 17.3769 17.0781 17.3769 17.0735C17.4296 17.0109 17.4777 16.9437 17.5212 16.8765C17.7662 16.5405 17.9632 16.1656 18.0831 15.7616C18.1212 15.6364 18.1548 15.5065 18.1793 15.3867C18.2083 15.2713 18.2228 15.1461 18.2373 15.0262C18.2419 14.9827 18.2472 14.9399 18.2472 14.8964C18.2617 14.8002 18.2617 14.6994 18.2617 14.6032V3.39225C18.2617 3.29145 18.2571 3.19065 18.2472 3.08985H18.248ZM5.77701 10.168L6.86722 9.08209V11.8984L3.77829 14.988V12.1672L5.77701 10.168ZM13.752 14.988L12.9931 14.2382L12.3686 13.6089L11.9846 13.2294L10.7455 11.9801V9.16915L11.7594 10.1779L13.7528 12.1672V14.988H13.752ZM13.752 9.35089L12.7427 8.34213V8.35205L11.9839 7.60217L10.7448 6.35286V3.54192L11.7586 4.55068V4.53159L12.9931 5.77174L13.752 6.53079V9.35165V9.35089Z" fill="#00DAB6"/>
<path d="M6.86722 9.08209L6.8675 11.8976L3.77829 14.988V12.1672L5.77701 10.168L6.86722 9.08209Z" fill="#BCFAEE"/>
<path d="M13.752 6.53079V9.35089L12.7427 8.34213L12.7427 8.35132L11.9839 7.60217L10.744 6.35288V3.54194L11.7579 4.55071V4.53161L12.9924 5.77099L13.752 6.53079Z" fill="#BCFAEE"/>
<path d="M13.752 12.1672L13.752 14.988L12.9924 14.2381L12.3679 13.6089L11.9838 13.2286L10.744 11.9793V9.16836L13.752 12.1672Z" fill="#BCFAEE"/>
</g>
<defs>
<clipPath id="clip0_6070_46358">
<rect width="18" height="18" fill="white"/>
</clipPath>
</defs>
</svg>
